<?xml version="1.0" standalone="no"?>
<!DOCTYPE svg PUBLIC "-//W3C//DTD SVG 20010904//EN"
 "http://www.w3.org/TR/2001/REC-SVG-20010904/DTD/svg10.dtd">
<svg version="1.0" xmlns="http://www.w3.org/2000/svg"
 width="338.000000pt" height="338.000000pt" viewBox="0 0 338.000000 338.000000"
 preserveAspectRatio="xMidYMid meet">

<g transform="translate(0.000000,338.000000) scale(0.100000,-0.100000)"
fill="#000000" stroke="none">
<path d="M1317 2820 c-44 -13 -95 -57 -117 -101 -19 -36 -21 -60 -22 -255 0
-118 2 -218 6 -221 3 -4 6 89 6 206 0 230 5 259 58 314 50 52 91 57 481 57
226 0 371 -4 396 -11 56 -15 104 -54 126 -103 18 -39 19 -84 19 -961 0 -873
-1 -922 -19 -960 -22 -48 -54 -79 -103 -100 -32 -13 -96 -15 -410 -15 -226 0
-388 4 -410 10 -45 13 -93 51 -116 94 -15 28 -18 83 -22 516 l-5 485 -3 -480
-2 -481 23 -44 c13 -26 40 -57 65 -75 41 -28 51 -30 148 -33 57 -2 102 -8 99
-12 -3 -5 -34 -25 -70 -45 -68 -37 -98 -70 -135 -145 -12 -25 -24 -47 -25 -48
-2 -2 -39 25 -82 61 -121 99 -281 216 -334 243 -27 13 -53 34 -60 45 -6 12 -7
19 -1 15 6 -3 15 8 21 26 9 26 8 43 -10 96 -12 35 -27 96 -35 135 l-14 72 5
-60 c8 -85 6 -117 -7 -132 -6 -7 -7 -13 -2 -13 5 0 9 -10 10 -22 1 -13 4 -44
6 -70 4 -33 2 -52 -9 -65 -13 -16 -13 -16 -3 5 7 13 9 26 6 29 -3 3 -8 -2 -12
-11 -7 -18 -25 -22 -22 -4 2 6 -8 12 -22 12 -18 0 -26 -5 -28 -21 -2 -12 -10
-24 -19 -27 -13 -5 -14 -4 -3 9 7 9 10 18 6 22 -3 4 -157 7 -341 7 l-335 1 0
-383 0 -382 1687 2 c1675 3 1688 3 1692 23 6 33 -11 768 -18 757 -4 -6 -138
-9 -361 -8 -195 1 -373 -2 -395 -5 -26 -5 -43 -3 -47 4 -6 9 -10 9 -15 1 -9
-14 -98 -13 -112 1 -6 6 -12 30 -15 55 -3 25 -12 79 -20 121 -18 91 -14 113
33 159 19 19 35 37 36 40 0 3 3 4 8 2 4 -1 7 4 7 11 0 7 12 25 26 41 25 26 27
35 26 115 0 47 -4 101 -7 119 -5 19 -4 32 2 32 5 0 10 16 11 35 1 19 -3 35 -9
35 -6 0 -7 5 -4 10 4 6 1 17 -5 25 -9 11 -9 15 -1 15 6 0 11 10 10 23 0 12 -3
16 -6 10 -2 -7 -9 -13 -14 -13 -6 0 -7 5 -4 10 3 6 3 16 -2 23 -4 6 -9 47 -10
90 -3 82 -22 146 -23 76 0 -22 -10 -51 -25 -73 -18 -27 -21 -36 -10 -36 19 0
45 -40 56 -87 11 -49 -4 -103 -35 -132 -24 -23 -24 -24 -6 -43 22 -24 35 -87
25 -120 -4 -13 -17 -34 -29 -47 -22 -24 -124 -97 -151 -107 -14 -6 -15 55 -15
564 1 314 4 572 8 574 4 2 5 86 2 188 -5 150 -9 192 -24 222 -24 49 -76 94
-123 107 -46 13 -784 13 -826 1z m-582 -2107 c-2 -10 -4 -19 -4 -21 -1 -2 -6
0 -11 3 -8 5 -7 11 1 21 15 18 18 18 14 -3z m479 -339 c7 -19 -10 -44 -29 -44
-19 0 -36 25 -29 44 3 9 16 16 29 16 13 0 26 -7 29 -16z m-54 -83 c14 -28 -13
-55 -41 -41 -22 12 -25 30 -7 48 18 18 36 15 48 -7z"/>
<path d="M1294 2781 c-39 -24 -70 -63 -83 -104 -6 -20 -9 -364 -8 -952 l2
-920 23 -37 c13 -20 40 -47 60 -60 37 -23 41 -23 407 -26 249 -2 387 0 422 8
58 13 110 57 129 112 9 25 13 262 13 941 1 983 3 946 -52 1005 -48 52 -47 52
-479 52 -377 0 -405 -1 -434 -19z m852 -31 c79 -39 74 26 74 -1007 0 -854 -1
-920 -18 -953 -34 -69 -41 -70 -470 -70 -424 0 -435 1 -472 62 -20 32 -20 48
-20 962 0 906 0 929 20 960 18 30 41 47 80 59 8 3 183 6 389 6 358 1 377 0
417 -19z"/>
<path d="M1477 2690 c3 -11 9 -20 14 -20 4 0 23 -21 41 -46 18 -25 34 -41 36
-36 3 11 -77 122 -89 122 -4 0 -5 -9 -2 -20z"/>
<path d="M1555 2700 c3 -5 12 -7 20 -3 21 7 19 13 -6 13 -11 0 -18 -4 -14 -10z"/>
<path d="M1618 2704 c8 -4 12 -27 12 -66 0 -34 3 -59 6 -56 3 4 5 31 5 62 0
51 2 56 23 56 12 0 28 -6 35 -12 11 -11 13 -10 9 2 -3 10 -20 16 -54 17 -27 1
-43 0 -36 -3z"/>
<path d="M1753 2645 c12 -36 25 -61 29 -57 5 5 1 23 -8 41 -9 18 -14 43 -11
57 3 18 0 24 -13 24 -17 0 -17 -4 3 -65z"/>
<path d="M1804 2679 c-1 -17 2 -25 6 -19 5 8 12 -2 20 -26 7 -22 15 -43 18
-48 6 -11 30 49 30 74 0 8 -5 -1 -12 -20 l-13 -35 -12 38 c-7 21 -10 44 -7 52
3 10 -1 15 -12 15 -12 0 -17 -9 -18 -31z"/>
<path d="M1876 2695 c4 -8 7 -15 9 -15 2 0 5 7 9 15 3 9 0 15 -9 15 -9 0 -12
-6 -9 -15z"/>
<path d="M1932 2698 c-21 -21 -13 -45 23 -67 26 -15 33 -25 28 -38 -5 -14 -3
-15 7 -7 18 17 4 47 -31 67 -17 9 -29 23 -27 30 6 17 39 21 50 5 8 -10 9 -10
5 2 -5 19 -39 24 -55 8z"/>
<path d="M1701 2594 c0 -11 3 -14 6 -6 3 7 2 16 -1 19 -3 4 -6 -2 -5 -13z"/>
<path d="M1923 2590 c2 -8 14 -16 28 -17 19 -1 20 -1 4 4 -11 3 -24 10 -28 17
-6 7 -7 6 -4 -4z"/>
<path d="M2300 2207 l-5 -87 25 0 c20 0 22 2 10 10 -10 6 -17 33 -20 87 l-6
78 -4 -88z"/>
<path d="M2400 1983 c-5 -37 -3 -43 20 -53 23 -11 24 -11 8 7 -9 10 -18 34
-20 53 l-3 35 -5 -42z"/>
<path d="M726 807 c3 -10 9 -15 12 -12 3 3 0 11 -7 18 -10 9 -11 8 -5 -6z"/>
</g>
</svg>
